:SAMPLES-PER-SECOND 30
:FULLY-SPECIFIED
:DEGREES
605
root  -23.6847 37.259 -2.09964 -64.4024 -89.0939 67.8757
RightUpLeg  -32.4597 0.943153 -0.777128
RightLeg  1.5688 -7.16497 -1.2393
RightFoot  -2.05473 -0.462056 5.90323
RightToes  2.91037e-010 0 -3.6325e-017
Spine  6.51373 0.835756 -0.974443
Spine1  20.1598 0.929683 1.64015
HEad  -17.8168 -2.76023 -4.44766
LeftShoulder1  0.669913 1.55406 -28.2253
LeftArm  -9.81986 -2.04805 -31.4487
LeftForeArm  22.2141 -75.2895 -49.6487
LeftHand  0.0674792 3.15711 -4.58357
RightShoulder  -0.0973614 -3.78945 24.9963
RightArm  -10.9016 -5.75867 35.3952
RightForeArm  70.8883 77.3676 111.5
RightHand  -0.0473503 0.61808 -0.98221
LeftUpLeg  -1.58384 12.1823 -2.68231
LeftLeg  31.3265 -7.69206 -4.63933
LeftFoot  -28.0089 1.49133 9.01539
LeftToes  -7.53974e-010 3.3384e-011 -1.25048e-011
606
root  -25.4521 37.015 -2.02468 68.1841 -88.8727 -64.8518
RightUpLeg  -33.9518 0.716442 1.86586
RightLeg  8.40279 -5.45042 -0.794517
RightFoot  4.39881 -0.149568 1.12516
RightToes  2.91037e-010 0 -3.6325e-017
Spine  7.40801 0.776466 3.2519
Spine1  20.5107 1.08815 0.734253
HEad  -18.2046 -2.44607 -4.95151
LeftShoulder1  0.666163 1.57305 -28.4308
LeftArm  -9.56331 -1.53924 -31.2156
LeftForeArm  21.591 -75.1767 -49.1683
LeftHand  0.0684099 3.18145 -4.69935
RightShoulder  -0.0968538 -3.78765 24.927
RightArm  -10.0364 -5.39226 34.7218
RightForeArm  69.776 77.4495 110.475
RightHand  -0.0388681 0.28224 -0.832772
LeftUpLeg  0.177809 13.292 0.259296
LeftLeg  34.9612 -8.92578 -6.32174
LeftFoot  -28.2307 1.07033 6.12542
LeftToes  -7.53974e-010 3.3384e-011 -1.25048e-011
607
root  -27.114 36.6532 -2.01061 112.23 -86.8784 -109.843
RightUpLeg  -35.7161 -0.231044 5.04217
RightLeg  16.643 -1.66226 -0.720631
RightFoot  10.684 -0.0222462 0.455582
RightToes  2.91037e-010 0 -3.6325e-017
Spine  10.7803 0.69693 7.55341
Spine1  19.3053 1.79741 -0.177051
HEad  -18.9809 -2.31919 -5.71204
LeftShoulder1  0.626577 1.7616 -29.8636
LeftArm  -8.89276 -2.3375 -30.3075
LeftForeArm  18.8796 -74.5855 -46.623
LeftHand  0.0695266 2.95807 -4.22987
RightShoulder  -0.0560962 -3.6575 24.7347
RightArm  -9.53732 -5.03988 34.1654
RightForeArm  68.4551 77.5654 109.034
RightHand  -0.033332 0.572267 -0.714274
LeftUpLeg  -0.120947 15.2188 4.30229
LeftLeg  44.1888 -10.0243 -9.93387
LeftFoot  -25.0763 0.333931 1.15958
LeftToes  -7.53974e-010 3.3384e-011 -1.25048e-011
608
root  -28.6189 36.4109 -1.84222 98.1375 -84.7738 -97.471
RightUpLeg  -35.9223 -2.52471 7.92541
RightLeg  24.9206 0.733958 0.115723
RightFoot  8.44521 0.561302 -2.91135
RightToes  2.91037e-010 0 -3.6325e-017
Spine  15.2631 -0.573295 12.4616
Spine1  18.7949 1.76415 -1.45959
HEad  -20.1858 -1.8321 -5.70294
LeftShoulder1  0.768373 1.32054 -29.0922
LeftArm  -9.56146 -2.3086 -31.9275
LeftForeArm  17.0862 -73.9523 -44.0365
LeftHand  0.079763 2.71695 -4.22389
RightShoulder  0.0376243 -3.35261 23.9783
RightArm  -9.48743 -3.36661 34.5585
RightForeArm  63.6487 77.9487 103.117
RightHand  -0.0287686 0.741505 -0.610596
LeftUpLeg  -3.15999 15.2596 8.01602
LeftLeg  56.2336 -8.31655 -12.4501
LeftFoot  -13.4519 0.007427 -5.29177
LeftToes  -7.53974e-010 3.3384e-011 -1.25048e-011
609
root  -29.7724 36.1776 -1.90276 81.1225 -84.8164 -81.4765
RightUpLeg  -36.541 -5.02604 8.08428
RightLeg  31.7154 1.18363 0.536915
RightFoot  4.93192 0.768084 -5.09746
RightToes  2.91037e-010 0 -3.6325e-017
Spine  19.6987 -1.24811 11.357
Spine1  17.8921 0.254599 1.80194
HEad  -21.0453 -1.2685 -5.09619
LeftShoulder1  0.891694 0.933075 -28.5662
LeftArm  -10.8566 -3.26926 -33.1669
LeftForeArm  13.9638 -72.7843 -40.1124
LeftHand  0.0972219 2.38292 -4.36153
RightShoulder  0.148276 -2.98053 23.4898
RightArm  -9.02691 0.293497 34.9074
RightForeArm  50.8517 78.2682 90.2864
RightHand  -0.0733218 1.47725 -1.38687
LeftUpLeg  -10.697 12.8519 7.77431
LeftLeg  68.1774 -3.95797 -9.93996
LeftFoot  4.28291 0.879975 -7.10112
LeftToes  -7.53974e-010 3.3384e-011 -1.25048e-011
610
root  -30.8776 36.0709 -1.83945 54.4989 -84.6789 -56.8663
RightUpLeg  -35.1247 -8.12673 6.95761
RightLeg  37.0759 1.586 1.00619
RightFoot  0.449859 0.554834 -5.32615
RightToes  2.91037e-010 0 -3.6325e-017
Spine  24.244 -2.6596 10.9628
Spine1  17.5433 -1.23495 3.10192
HEad  -22.3475 -1.0062 -4.28046
LeftShoulder1  1.03434 0.473043 -28.0494
LeftArm  -11.838 -6.46303 -33.7572
LeftForeArm  9.65569 -70.9033 -35.161
LeftHand  0.0800635 2.70143 -4.23669
RightShoulder  0.160481 -2.93576 23.2816
RightArm  -9.24078 4.63112 35.8377
RightForeArm  37.6824 77.9335 75.6664
RightHand  -0.0756198 2.35306 -1.33322
LeftUpLeg  -17.0237 9.80423 6.42214
LeftLeg  76.5958 -1.49773 -6.37503
LeftFoot  11.9592 0.811297 -4.05681
LeftToes  -7.53974e-010 3.3384e-011 -1.25048e-011
611
root  -32.2424 36.347 -1.67498 36.1589 -84.5181 -40.3403
RightUpLeg  -31.568 -10.5819 5.07667
RightLeg  39.3048 2.27026 1.69588
RightFoot  -3.1693 0.35986 -5.3189
RightToes  2.91037e-010 0 -3.6325e-017
Spine  27.7993 -3.8616 10.8369
Spine1  17.2134 -2.12076 2.81765
HEad  -23.222 -1.25318 -3.83551
LeftShoulder1  1.21125 -0.129465 -27.191
LeftArm  -12.4548 -9.5916 -34.958
LeftForeArm  5.65184 -68.5114 -30.4417
LeftHand  0.110094 1.78169 -3.92562
RightShoulder  0.178973 -2.8687 23.1083
RightArm  -9.30663 9.09064 36.4552
RightForeArm  22.2368 76.4768 59.0821
RightHand  -0.0829333 2.98082 -1.35426
LeftUpLeg  -22.092 7.38412 4.42924
LeftLeg  80.2084 -1.14689 -6.43732
LeftFoot  6.95529 0.00337054 -0.375942
LeftToes  -7.53974e-010 3.3384e-011 -1.25048e-011
